<svg xmlns="http://www.w3.org/2000/svg" xmlns:xlink="http://www.w3.org/1999/xlink" width="840" height="582.75"><rect width="840" height="582.75" rx="0" ry="0" class="a"></rect><svg height="542.75" viewBox="0 0 80 54.275" width="800" x="20" xmlns="http://www.w3.org/2000/svg" xmlns:xlink="http://www.w3.org/1999/xlink" y="20"><style>.a{fill:rgb(22,27,34)}.b{font-family:'Fira Code',Monaco,Consolas,Menlo,'Bitstream Vera Sans Mono','Powerline Symbols',monospace}.c{fill:transparent}.d{fill:rgb(201,209,217);white-space:pre}.e{fill:rgb(117,113,94);white-space:pre}.f{fill:rgb(133,153,0);white-space:pre}.g{white-space:pre}.h{fill:rgb(211,54,130);white-space:pre}.i{fill:rgb(220,50,47);white-space:pre}.j{fill:rgb(42,161,152);white-space:pre}</style><g font-family="&#x27;Fira Code&#x27;,Monaco,Consolas,Menlo,&#x27;Bitstream Vera Sans Mono&#x27;,&#x27;Powerline Symbols&#x27;,monospace" font-size="1.67" class="b"><defs><symbol id="a"><rect height="25" width="80" x="0" y="0" class="c"></rect></symbol></defs><rect height="54.275" width="80" class="a"></rect><svg x="0" y="0" width="80"><svg x="0"><use xlink:href="#a"></use><text font-size="1.67" x="0" y="1.67" class="d">✔</text><text font-size="1.67" x="2.004" y="1.67" class="d">pipelines/my_etl.R</text><text font-size="1.67" x="21.041999999999998" y="1.67" class="d">my_etl</text><text font-size="1.67" x="28.055999999999997" y="1.67" class="d">[996ms]</text><text font-size="1.67" x="0" y="6.012" class="d">ℹ</text><text font-size="1.67" x="2.004" y="6.012" class="d">pipelines/pipe1.R</text><text font-size="1.67" x="20.04" y="6.012" class="d">get_mtcars</text><text font-size="1.67" x="0" y="8.183" class="d">✔</text><text font-size="1.67" x="2.004" y="8.183" class="d">pipelines/pipe1.R</text><text font-size="1.67" x="20.04" y="8.183" class="d">get_mtcars</text><text font-size="1.67" x="31.061999999999998" y="8.183" class="d">[10.2s]</text><text font-size="1.67" x="0" y="12.525" class="d">ℹ</text><text font-size="1.67" x="2.004" y="12.525" class="d">pipelines/pipe2.R</text><text font-size="1.67" x="20.04" y="12.525" class="d">multi_rng</text><text font-size="1.67" x="0" y="14.696" class="d">✔</text><text font-size="1.67" x="2.004" y="14.696" class="d">pipelines/pipe2.R</text><text font-size="1.67" x="20.04" y="14.696" class="d">multi_rng</text><text font-size="1.67" x="30.059999999999995" y="14.696" class="d">[228ms]</text><text font-size="1.67" x="0" y="21.209000000000003" class="d">──</text><text font-size="1.67" x="3.006" y="21.209000000000003" class="d">Pipeline</text><text font-size="1.67" x="12.024" y="21.209000000000003" class="d">execution</text><text font-size="1.67" x="22.043999999999997" y="21.209000000000003" class="d">completed</text><text font-size="1.67" x="32.064" y="21.209000000000003" class="e">■</text><text font-size="1.67" x="34.068" y="21.209000000000003" class="d">|</text><text font-size="1.67" x="36.071999999999996" y="21.209000000000003" class="d">10.887</text><text font-size="1.67" x="43.086" y="21.209000000000003" class="d">sec</text><text font-size="1.67" x="47.093999999999994" y="21.209000000000003" class="d">elapsed</text><text font-size="1.67" x="0" y="23.380000000000003" class="f">✔</text><text font-size="1.67" x="2.004" y="23.380000000000003" class="d">3</text><text font-size="1.67" x="4.008" y="23.380000000000003" class="d">successes</text><text font-size="1.67" x="14.027999999999999" y="23.380000000000003" class="d">|</text><text font-size="1.67" x="16.032" y="23.380000000000003" class="g">→</text><text font-size="1.67" x="18.035999999999998" y="23.380000000000003" class="d">0</text><text font-size="1.67" x="20.04" y="23.380000000000003" class="d">skipped</text><text font-size="1.67" x="28.055999999999997" y="23.380000000000003" class="d">|</text><text font-size="1.67" x="30.059999999999995" y="23.380000000000003" class="h">!</text><text font-size="1.67" x="32.064" y="23.380000000000003" class="d">0</text><text font-size="1.67" x="34.068" y="23.380000000000003" class="d">warnings</text><text font-size="1.67" x="43.086" y="23.380000000000003" class="d">|</text><text font-size="1.67" x="45.089999999999996" y="23.380000000000003" class="i">✖</text><text font-size="1.67" x="47.093999999999994" y="23.380000000000003" class="d">0</text><text font-size="1.67" x="49.098" y="23.380000000000003" class="d">errors</text><text font-size="1.67" x="56.111999999999995" y="23.380000000000003" class="d">|</text><text font-size="1.67" x="58.116" y="23.380000000000003" class="j">◼</text><text font-size="1.67" x="60.11999999999999" y="23.380000000000003" class="d">3</text><text font-size="1.67" x="62.123999999999995" y="23.380000000000003" class="d">total</text><text font-size="1.67" x="0" y="25.550999999999995" class="d">────────────────────────────────────────────────────────────────────────────────</text><text font-size="1.67" x="0" y="29.893" class="d">──</text><text font-size="1.67" x="3.006" y="29.893" class="d">Next</text><text font-size="1.67" x="8.016" y="29.893" class="d">scheduled</text><text font-size="1.67" x="18.035999999999998" y="29.893" class="d">pipelines</text><text font-size="1.67" x="28.055999999999997" y="29.893" class="j">❯</text><text font-size="1.67" x="0" y="32.064" class="d">Pipe</text><text font-size="1.67" x="5.01" y="32.064" class="d">name</text><text font-size="1.67" x="10.02" y="32.064" class="d">|</text><text font-size="1.67" x="12.024" y="32.064" class="d">Next</text><text font-size="1.67" x="17.034" y="32.064" class="d">scheduled</text><text font-size="1.67" x="27.054" y="32.064" class="d">run</text><text font-size="1.67" x="0" y="34.235" class="d">•</text><text font-size="1.67" x="2.004" y="34.235" class="d">my_etl</text><text font-size="1.67" x="9.017999999999999" y="34.235" class="d">|</text><text font-size="1.67" x="11.021999999999998" y="34.235" class="d">2024-05-25</text><text font-size="1.67" x="0" y="36.406" class="d">•</text><text font-size="1.67" x="2.004" y="36.406" class="d">get_mtcars</text><text font-size="1.67" x="13.026" y="36.406" class="d">|</text><text font-size="1.67" x="15.029999999999998" y="36.406" class="d">2024-05-25</text><text font-size="1.67" x="0" y="38.577000000000005" class="d">•</text><text font-size="1.67" x="2.004" y="38.577000000000005" class="d">multi_rng</text><text font-size="1.67" x="12.024" y="38.577000000000005" class="d">|</text><text font-size="1.67" x="14.027999999999999" y="38.577000000000005" class="d">2024-05-25</text><text font-size="1.67" x="0" y="40.748000000000005" class="d">Warning</text><text font-size="1.67" x="8.016" y="40.748000000000005" class="d">message:</text><text font-size="1.67" x="0" y="42.919" class="d">UNRELIABLE</text><text font-size="1.67" x="11.021999999999998" y="42.919" class="d">VALUE:</text><text font-size="1.67" x="18.035999999999998" y="42.919" class="d">Future</text><text font-size="1.67" x="25.05" y="42.919" class="d">(‘&lt;none&gt;’)</text><text font-size="1.67" x="36.071999999999996" y="42.919" class="d">unexpectedly</text><text font-size="1.67" x="49.098" y="42.919" class="d">generated</text><text font-size="1.67" x="59.117999999999995" y="42.919" class="d">random</text><text font-size="1.67" x="66.13199999999999" y="42.919" class="d">numbers</text><text font-size="1.67" x="74.148" y="42.919" class="d">withou</text><text font-size="1.67" x="0" y="45.09" class="d">t</text><text font-size="1.67" x="2.004" y="45.09" class="d">specifying</text><text font-size="1.67" x="13.026" y="45.09" class="d">argument</text><text font-size="1.67" x="22.043999999999997" y="45.09" class="d">&#x27;seed&#x27;.</text><text font-size="1.67" x="30.059999999999995" y="45.09" class="d">There</text><text font-size="1.67" x="36.071999999999996" y="45.09" class="d">is</text><text font-size="1.67" x="39.077999999999996" y="45.09" class="d">a</text><text font-size="1.67" x="41.082" y="45.09" class="d">risk</text><text font-size="1.67" x="46.09199999999999" y="45.09" class="d">that</text><text font-size="1.67" x="51.102" y="45.09" class="d">those</text><text font-size="1.67" x="57.114" y="45.09" class="d">random</text><text font-size="1.67" x="64.128" y="45.09" class="d">numbers</text><text font-size="1.67" x="72.14399999999999" y="45.09" class="d">are</text><text font-size="1.67" x="76.15199999999999" y="45.09" class="d">not</text><text font-size="1.67" x="0" y="47.261" class="d">statistically</text><text font-size="1.67" x="14.027999999999999" y="47.261" class="d">sound</text><text font-size="1.67" x="20.04" y="47.261" class="d">and</text><text font-size="1.67" x="24.048" y="47.261" class="d">the</text><text font-size="1.67" x="28.055999999999997" y="47.261" class="d">overall</text><text font-size="1.67" x="36.071999999999996" y="47.261" class="d">results</text><text font-size="1.67" x="44.087999999999994" y="47.261" class="d">might</text><text font-size="1.67" x="50.1" y="47.261" class="d">be</text><text font-size="1.67" x="53.105999999999995" y="47.261" class="d">invalid.</text><text font-size="1.67" x="62.123999999999995" y="47.261" class="d">To</text><text font-size="1.67" x="65.13" y="47.261" class="d">fix</text><text font-size="1.67" x="69.13799999999999" y="47.261" class="d">this,</text><text font-size="1.67" x="75.14999999999999" y="47.261" class="d">speci</text><text font-size="1.67" x="0" y="49.431999999999995" class="d">fy</text><text font-size="1.67" x="3.006" y="49.431999999999995" class="d">&#x27;seed=TRUE&#x27;.</text><text font-size="1.67" x="16.032" y="49.431999999999995" class="d">This</text><text font-size="1.67" x="21.041999999999998" y="49.431999999999995" class="d">ensures</text><text font-size="1.67" x="29.058" y="49.431999999999995" class="d">that</text><text font-size="1.67" x="34.068" y="49.431999999999995" class="d">proper,</text><text font-size="1.67" x="42.083999999999996" y="49.431999999999995" class="d">parallel-safe</text><text font-size="1.67" x="56.111999999999995" y="49.431999999999995" class="d">random</text><text font-size="1.67" x="63.12599999999999" y="49.431999999999995" class="d">numbers</text><text font-size="1.67" x="71.142" y="49.431999999999995" class="d">are</text><text font-size="1.67" x="75.14999999999999" y="49.431999999999995" class="d">produ</text><text font-size="1.67" x="0" y="51.603" class="d">ced</text><text font-size="1.67" x="4.008" y="51.603" class="d">via</text><text font-size="1.67" x="8.016" y="51.603" class="d">the</text><text font-size="1.67" x="12.024" y="51.603" class="d">L&#x27;Ecuyer-CMRG</text><text font-size="1.67" x="26.052" y="51.603" class="d">method.</text><text font-size="1.67" x="34.068" y="51.603" class="d">To</text><text font-size="1.67" x="37.074" y="51.603" class="d">disable</text><text font-size="1.67" x="45.089999999999996" y="51.603" class="d">this</text><text font-size="1.67" x="50.1" y="51.603" class="d">check,</text><text font-size="1.67" x="57.114" y="51.603" class="d">use</text><text font-size="1.67" x="61.12199999999999" y="51.603" class="d">&#x27;seed=NULL&#x27;,</text><text font-size="1.67" x="74.148" y="51.603" class="d">or</text><text font-size="1.67" x="77.154" y="51.603" class="d">set</text><text font-size="1.67" x="1.002" y="53.774" class="d">option</text><text font-size="1.67" x="8.016" y="53.774" class="d">&#x27;future.rng.onMisuse&#x27;</text><text font-size="1.67" x="30.059999999999995" y="53.774" class="d">to</text><text font-size="1.67" x="33.065999999999995" y="53.774" class="d">&quot;ignore&quot;.</text></svg></svg></g></svg></svg>